{"title":"Hercules and the Circle of Fire (1994) DVD RIP","uid":10989736,"size":1353791142,"categoryP":"video","categoryS":"movies","magnet":"?xt=urn:btih:8fff3fae6eb74ef59c5b17f2c11ba26f7458a7a1&amp;dn=Hercules+and+the+Circle+of+Fire+%281994%29+DVD+RIP&amp;tr=udp%3A%2F%2Ftracker.openbittorrent.com%3A80&amp;tr=udp%3A%2F%2Fopen.demonii.com%3A1337&amp;tr=udp%3A%2F%2Ftracker.coppersurfer.tk%3A6969&amp;tr=udp%3A%2F%2Fexodus.desync.com%3A6969","seeders":4,"leechers":0,"uploader":"jmanwf","files":-1,"time":1409981429,"description":"Movie Info\n\nIn the third of five made-for-TV movies starring Kevin Sorbo as legendary superhero Hercules, the Earth is in danger of turning into a block of ice unless the fires of the world can be rekindled. This calamitous situation is the handiwork of Hercules' treacherous stepmother Hera, in whose immortal hands the Eternal Torch has been passed. To retrieve this valuable flame and save Mankind, Hercules must do battle with a giant, a duplicitous wood sprite and his own Olympian father Zeus\n\nFormat : MPEG-4\nFormat profile : Base Media / Version 2\nCodec ID : mp42\nFile size : 1.26 GiB\nDuration : 1h 30mn\nOverall bit rate : 1 992 Kbps\nEncoded date : UTC 2014-08-29 09:09:18\nTagged date : UTC 2014-08-29 09:50:06\nWriting application : HandBrake 0.9.9 2013052900\n\nVideo\nID : 1\nFormat : AVC\nFormat/Info : Advanced Video Codec\nFormat profile : &lt;a class=&quot;__cf_email__&quot; href=&quot;/cdn-cgi/l/email-protection&quot; data-cfemail=&quot;5f173638371f136b716e&quot;&gt;[email&amp;#160;protected]&lt;/a&gt;&lt;script cf-hash='f9e31' type=&quot;text/javascript&quot;&gt;\n/* &lt;![CDATA[ */!function(){try{var t=&quot;currentScript&quot;in document?document.currentScript:function(){for(var t=document.getElementsByTagName(&quot;script&quot;),e=t.length;e--;)if(t[e].getAttribute(&quot;cf-hash&quot;))return t[e]}();if(t&amp;&amp;t.previousSibling){var e,r,n,i,c=t.previousSibling,a=c.getAttribute(&quot;data-cfemail&quot;);if(a){for(e=&quot;&quot;,r=parseInt(a.substr(0,2),16),n=2;a.length-n;n+=2)i=parseInt(a.substr(n,2),16)^r,e+=String.fromCharCode(i);e=document.createTextNode(e),c.parentNode.replaceChild(e,c)}}}catch(u){}}();/* ]]&gt; */&lt;/script&gt;\nFormat settings, CABAC : Yes\nFormat settings, ReFrames : 4 frames\nCodec ID : avc1\nCodec ID/Info : Advanced Video Coding\nDuration : 1h 30mn\nBit rate : 1 540 Kbps\nWidth : 720 pixels\nHeight : 488 pixels\nDisplay aspect ratio : 4:3\nOriginal display aspect ratio : 4:3\nFrame rate mode : Variable\nFrame rate : 27.769 fps\nMinimum frame rate : 19.969 fps\nMaximum frame rate : 29.970 fps\nColor space : YUV\nChroma subsampling : 4:2:0\nBit depth : 8 bits\nScan type : Progressive\nBits/(Pixel*Frame) : 0.158\nStream size : 998 MiB (77%)\nWriting library : x264 core 130 r2273 b3065e6\nEncoded date : UTC 2014-08-29 09:09:18\nTagged date : UTC 2014-08-29 09:50:06\nColor primaries : BT.601 NTSC\nTransfer characteristics : BT.709\nMatrix coefficients : BT.601\n\nAudio\nID : 2\nFormat : AC-3\nFormat/Info : Audio Coding 3\nMode extension : CM (complete main)\nFormat settings, Endianness : Big\nCodec ID : ac-3\nDuration : 1h 30mn\nBit rate mode : Constant\nBit rate : 448 Kbps\nChannel(s) : 6 channels\nChannel positions : Front: L C R, Side: L R, LFE\nSampling rate : 48.0 KHz\nBit depth : 16 bits\nCompression mode : Lossy\nStream size : 290 MiB (22%)\nLanguage : English\nEncoded date : UTC 2014-08-29 09:09:18\n\n\n &lt;a href=&quot;\nhttp://www.imdb.com/title/tt0110016/?ref_=ttfc_fc_tt&quot; rel=&quot;nofollow&quot; target=&quot;_NEW&quot;&gt;\nhttp://www.imdb.com/title/tt0110016/?ref_=ttfc_fc_tt&lt;/a&gt;","torrent":{"xt":"urn:btih:8fff3fae6eb74ef59c5b17f2c11ba26f7458a7a1","amp;dn":"Hercules+and+the+Circle+of+Fire+%281994%29+DVD+RIP","amp;tr":["udp%3A%2F%2Ftracker.openbittorrent.com%3A80","udp%3A%2F%2Fopen.demonii.com%3A1337","udp%3A%2F%2Ftracker.coppersurfer.tk%3A6969","udp%3A%2F%2Fexodus.desync.com%3A6969"],"infoHash":"8fff3fae6eb74ef59c5b17f2c11ba26f7458a7a1","infoHashBuffer":{"type":"Buffer","data":[143,255,63,174,110,183,78,245,156,91,23,242,193,27,162,111,116,88,167,161]},"announce":[],"urlList":[]}}